
<svg
  version="1.0"
  xmlns="http://www.w3.org/2000/svg"
  xmlns:xlink="http://www.w3.org/1999/xlink"
  width="2400"
  height="1800"
>
  
  <rect
    x="0"
    y="0"
    width="100%"
    height="100%"
    fill="#fff"
    fill-opacity="1"
  ></rect>
  <svg
    version="1.0"
    xmlns="http://www.w3.org/2000/svg"
    xmlns:xlink="http://www.w3.org/1999/xlink"
    x="0"
    y="0"
    width="2400"
    height="1800"
    viewBox="0 0 340.000000 250.000000"
    preserveAspectRatio="xMidYMid meet"
    color-interpolation-filters="sRGB"
  >
    <defs><linearGradient id="92" x1="0%" y1="0%" x2="100%" y2="0%"><stop offset="0%" stop-color="#fa71cd"/> <stop offset="100%" stop-color="#9b59b6"/></linearGradient><linearGradient id="93" x1="0%" y1="0%" x2="100%" y2="0%"><stop offset="0%" stop-color="#f9d423"/> <stop offset="100%" stop-color="#f83600"/></linearGradient><linearGradient id="94" x1="0%" y1="0%" x2="100%" y2="0%"><stop offset="0%" stop-color="#0064d2"/> <stop offset="100%" stop-color="#1cb0f6"/></linearGradient><linearGradient id="95" x1="0%" y1="0%" x2="100%" y2="0%"><stop offset="0%" stop-color="#f00978"/> <stop offset="100%" stop-color="#3f51b1"/></linearGradient><linearGradient id="96" x1="0%" y1="0%" x2="100%" y2="0%"><stop offset="0%" stop-color="#7873f5"/> <stop offset="100%" stop-color="#ec77ab"/></linearGradient><linearGradient id="97" x1="0%" y1="0%" x2="100%" y2="0%"><stop offset="0%" stop-color="#f9d423"/> <stop offset="100%" stop-color="#e14fad"/></linearGradient><linearGradient id="98" x1="0%" y1="0%" x2="100%" y2="0%"><stop offset="0%" stop-color="#009efd"/> <stop offset="100%" stop-color="#2af598"/></linearGradient><linearGradient id="99" x1="0%" y1="0%" x2="100%" y2="0%"><stop offset="0%" stop-color="#ffcc00"/> <stop offset="100%" stop-color="#00b140"/></linearGradient><linearGradient id="100" x1="0%" y1="0%" x2="100%" y2="0%"><stop offset="0%" stop-color="#d51007"/> <stop offset="100%" stop-color="#ff8177"/></linearGradient><linearGradient id="102" x1="0%" y1="0%" x2="100%" y2="0%"><stop offset="0%" stop-color="#a2b6df"/> <stop offset="100%" stop-color="#0c3483"/></linearGradient><linearGradient id="103" x1="0%" y1="0%" x2="100%" y2="0%"><stop offset="0%" stop-color="#7ac5d8"/> <stop offset="100%" stop-color="#eea2a2"/></linearGradient><linearGradient id="104" x1="0%" y1="0%" x2="100%" y2="0%"><stop offset="0%" stop-color="#00ecbc"/> <stop offset="100%" stop-color="#007adf"/></linearGradient><linearGradient id="105" x1="0%" y1="0%" x2="100%" y2="0%"><stop offset="0%" stop-color="#b88746"/> <stop offset="100%" stop-color="#fdf5a6"/></linearGradient></defs> <g fill="#010101" class="icon-text-wrapper icon-svg-group iconsvg" transform="translate(52.92053985595703,94.8580322265625)"><g class="iconsvg-imagesvg" transform="translate(0,0)"><g><rect fill="#010101" fill-opacity="0" stroke-width="2" x="0" y="0" width="60.00000000000001" height="60.28393734489446" class="image-rect"/> <svg filter="url(#colors5993299707)" x="0" y="0" width="60.00000000000001" height="60.28393734489446" filtersec="colorsf8505078145" class="image-svg-svg primary" style="overflow: visible;"><svg xmlns="http://www.w3.org/2000/svg" viewBox="-0.0014705657958984375 -0.0049609956331551075 121.96752166748047 122.54496002197266"><path d="M94.34 0c16.51-.32 29.72 14.89 27.35 31.35a28.37 28.37 0 0 1-8.33 16.36c-5.27 5.32-10.62 10.57-15.93 15.86-8.11 8.1-8.19 18.84-.21 27.1 3 3.11 3.44 6 1.22 8s-4.89 1.34-8-1.64a27.11 27.11 0 0 1-8.33-18.68c-.43-8.67 3.08-15.83 9.19-21.85 5.45-5.37 10.9-10.75 16.23-16.24a18.09 18.09 0 0 0 .13-25.26 18.29 18.29 0 0 0-26.2-.53c-1.36 1.3-3.14 2.66-4.87 2.9a5.48 5.48 0 0 1-4.25-2.22c-1-1.55-.77-3.6.72-5.27A28 28 0 0 1 94.34 0z" fill="#000000"/><path d="M30.82 0c4.29 0 10.94 2.83 16.47 8.26S58 19 63.34 24.35c8.34 8.39 19.21 8.4 27.66.06a8.16 8.16 0 0 1 2.33-1.8A4.49 4.49 0 0 1 99 24a4.81 4.81 0 0 1-.49 6.18C89.2 40.82 73.09 43 61.59 34.85c-3.43-2.43-6.35-5.59-9.39-8.54-4-3.89-7.86-7.91-11.81-11.84a18.21 18.21 0 0 0-26 .31 18.45 18.45 0 0 0 .26 25.87c.59.59 1.24 1.13 1.77 1.76a5 5 0 0 1-.23 6.6 4.44 4.44 0 0 1-6.32-.08C2.89 42.74-.59 35 .08 25.65 1.13 11 12.62.29 30.82 0z" fill="#000000"/><path d="M27.14 121.94A27.25 27.25 0 0 1 .26 91a26.56 26.56 0 0 1 7.62-15.88C13.24 69.75 18.51 64.31 23.94 59c8.78-8.57 8.92-19.51.25-28.2-2.5-2.49-2.81-5.16-.86-7.24s4.81-1.83 7.27.52c12.4 11.81 12.31 29.24-.12 41.44C25.14 70.77 19.79 76 14.62 81.46 5.5 91 8.13 105.35 20 111.16c6.59 3.24 14.84 1.72 20.53-3.76a18.74 18.74 0 0 1 2.4-2.16 4.55 4.55 0 0 1 6.28.85 4.79 4.79 0 0 1-.29 6c-5.78 6.53-12.92 10.01-21.78 9.85z" fill="#000000"/><path d="M94.22 122.54c-7.84-.72-14.36-3.51-19.79-9-5.8-5.86-11.54-11.79-17.57-17.4a18 18 0 0 0-24.54.1c-.86.78-1.65 1.65-2.55 2.39a4.65 4.65 0 0 1-6.35-.07 4.74 4.74 0 0 1-.06-6.56c4.63-4.9 10.08-8.48 16.9-9.41C49.87 81.28 58.16 84 65 91c5.33 5.49 10.81 10.84 16.26 16.22A18.29 18.29 0 0 0 112 89.52c-.82-2.69-2.68-5.09-4.2-7.53a31.49 31.49 0 0 0-2.36-2.57 4.76 4.76 0 0 1 .11-6.19 4.49 4.49 0 0 1 6.34-.31c7.64 6.87 11.24 15.36 9.67 25.69-1.52 10-7.1 17.14-16.34 21.09-3.44 1.47-7.32 1.92-11 2.84z" fill="#000000"/></svg></svg> <defs><filter id="colors5993299707"><feColorMatrix type="matrix" values="0 0 0 0 0.00390625  0 0 0 0 0.00390625  0 0 0 0 0.00390625  0 0 0 1 0" class="icon-feColorMatrix "/></filter> <filter id="colorsf8505078145"><feColorMatrix type="matrix" values="0 0 0 0 0.99609375  0 0 0 0 0.99609375  0 0 0 0 0.99609375  0 0 0 1 0" class="icon-fecolormatrix"/></filter> <filter id="colorsb1268082115"><feColorMatrix type="matrix" values="0 0 0 0 0  0 0 0 0 0  0 0 0 0 0  0 0 0 1 0" class="icon-fecolormatrix"/></filter></defs></g></g> <g transform="translate(67,5.482667922973633)"><g fill-rule="" class="tp-name iconsvg-namesvg" transform="translate(0,0)"><g transform="scale(1)"><g><path d="M25.61-12.79L25.61-12.79Q25.61-9.65 24.76-7.1 23.9-4.55 22.22-2.79 20.53-1.03 18.02-0.23L18.02-0.23 24.02 6.07 19.78 6.07 14.85 0.31Q14.62 0.31 14.38 0.33 14.15 0.35 13.92 0.35L13.92 0.35Q10.96 0.35 8.75-0.59 6.54-1.54 5.09-3.28 3.63-5.02 2.9-7.45 2.18-9.87 2.18-12.82L2.18-12.82Q2.18-16.73 3.47-19.68 4.76-22.63 7.39-24.27 10.01-25.91 13.97-25.91L13.97-25.91Q17.76-25.91 20.35-24.28 22.94-22.66 24.28-19.72 25.61-16.78 25.61-12.79ZM5.3-12.79L5.3-12.79Q5.3-9.54 6.23-7.17 7.15-4.8 9.06-3.51 10.97-2.22 13.92-2.22L13.92-2.22Q16.89-2.22 18.78-3.51 20.67-4.8 21.58-7.17 22.49-9.54 22.49-12.79L22.49-12.79Q22.49-17.73 20.42-20.51 18.35-23.29 13.97-23.29L13.97-23.29Q11.01-23.29 9.09-22.02 7.17-20.74 6.24-18.4 5.3-16.05 5.3-12.79ZM43.72-19.12L46.63-19.12 46.63 0 44.26 0 43.84-2.69 43.68-2.69Q43.09-1.69 42.15-1.01 41.21-0.33 40.03 0.01 38.85 0.35 37.53 0.35L37.53 0.35Q35.26 0.35 33.72-0.38 32.19-1.12 31.41-2.65 30.64-4.19 30.64-6.59L30.64-6.59 30.64-19.12 33.57-19.12 33.57-6.8Q33.57-4.41 34.65-3.24 35.73-2.06 37.94-2.06L37.94-2.06Q40.07-2.06 41.34-2.86 42.6-3.66 43.16-5.23 43.72-6.79 43.72-9.05L43.72-9.05 43.72-19.12ZM69.24-9.6L69.24-9.6Q69.24-7.24 68.63-5.39 68.02-3.54 66.87-2.27 65.72-0.99 64.09-0.32 62.46 0.35 60.4 0.35L60.4 0.35Q58.48 0.35 56.88-0.32 55.29-0.99 54.13-2.27 52.97-3.54 52.33-5.39 51.69-7.24 51.69-9.6L51.69-9.6Q51.69-12.74 52.76-14.94 53.82-17.15 55.8-18.31 57.78-19.47 60.52-19.47L60.52-19.47Q63.14-19.47 65.1-18.3 67.06-17.13 68.15-14.93 69.24-12.72 69.24-9.6ZM54.69-9.6L54.69-9.6Q54.69-7.29 55.3-5.6 55.91-3.91 57.19-2.98 58.46-2.06 60.47-2.06L60.47-2.06Q62.46-2.06 63.74-2.98 65.02-3.91 65.63-5.6 66.24-7.29 66.24-9.6L66.24-9.6Q66.24-11.88 65.63-13.55 65.02-15.21 63.75-16.12 62.47-17.03 60.45-17.03L60.45-17.03Q57.47-17.03 56.08-15.06 54.69-13.08 54.69-9.6ZM80.43-2.02L80.43-2.02Q81.14-2.02 81.89-2.15 82.64-2.27 83.11-2.44L83.11-2.44 83.11-0.19Q82.61 0.03 81.71 0.19 80.81 0.35 79.95 0.35L79.95 0.35Q78.44 0.35 77.2-0.18 75.96-0.72 75.22-1.99 74.48-3.26 74.48-5.51L74.48-5.51 74.48-16.85 71.76-16.85 71.76-18.27 74.49-19.4 75.65-23.55 77.39-23.55 77.39-19.12 82.99-19.12 82.99-16.85 77.39-16.85 77.39-5.6Q77.39-3.8 78.22-2.91 79.05-2.02 80.43-2.02ZM94.35-19.47L94.35-19.47Q96.79-19.47 98.53-18.39 100.28-17.31 101.2-15.36 102.13-13.42 102.13-10.82L102.13-10.82 102.13-9.02 88.92-9.02Q88.97-5.65 90.6-3.89 92.22-2.13 95.17-2.13L95.17-2.13Q96.98-2.13 98.38-2.46 99.77-2.79 101.27-3.44L101.27-3.44 101.27-0.89Q99.83-0.24 98.4 0.05 96.98 0.35 95.05 0.35L95.05 0.35Q92.29 0.35 90.24-0.78 88.19-1.9 87.06-4.08 85.92-6.26 85.92-9.42L85.92-9.42Q85.92-12.51 86.96-14.77 88-17.03 89.89-18.25 91.78-19.47 94.35-19.47ZM94.31-17.1L94.31-17.1Q91.99-17.1 90.61-15.58 89.24-14.06 88.97-11.34L88.97-11.34 99.09-11.34Q99.08-13.05 98.56-14.35 98.05-15.65 97-16.37 95.95-17.1 94.31-17.1Z" transform="translate(-2.180000066757202, 25.979999542236328)"/></g> <g fill="#006400" transform="translate(102.94999694824219,0)"><g transform="scale(1)"><path d="M21.47 0L21.47 0Q21.4 0 21.01 0L21.01 0Q20.15-0.04 17.83-0.09 15.51-0.14 11.79-0.11L11.79-0.11 2.32 0Q1.61 0 1.52-0.43 1.43-0.86 1.79-1.46L1.79-1.46Q2.14-2.11 3.09-3.61 4.04-5.11 5.36-7.16 6.68-9.22 8.16-11.5 9.65-13.79 11.11-16.02 12.58-18.26 13.85-20.15 15.11-22.04 15.95-23.3 16.79-24.55 17.01-24.8L17.01-24.8 9.72-24.8Q7.93-24.8 6.72-23.92 5.5-23.05 4.75-21.79 4-20.54 3.61-19.47L3.61-19.47Q3.57-19.33 3.45-19.2 3.32-19.08 3.04-19.12L3.04-19.12Q2.79-19.15 2.72-19.33 2.64-19.51 2.64-19.65L2.64-19.65Q2.64-19.76 2.68-20.46 2.72-21.15 2.75-22.1 2.79-23.05 2.82-23.87 2.86-24.69 2.89-25.05L2.89-25.05Q2.93-25.98 3.86-25.98L3.86-25.98Q4.04-25.98 4.82-25.94 5.61-25.9 7.32-25.89 9.04-25.87 12.04-25.87L12.04-25.87 21.29-25.87Q21.9-25.87 22.08-25.4 22.26-24.94 21.9-24.4L21.9-24.4Q21.79-24.22 21.12-23.21 20.44-22.19 19.38-20.56 18.33-18.94 17.04-16.95 15.76-14.97 14.38-12.88 13.01-10.79 11.68-8.79 10.36-6.79 9.27-5.15 8.18-3.5 7.47-2.43 6.75-1.36 6.57-1.14L6.57-1.14 16.11-1.14Q17.58-1.14 18.54-1.82 19.51-2.5 20.12-3.5 20.72-4.5 21.08-5.48 21.44-6.47 21.65-7.07L21.65-7.07Q21.76-7.4 22.3-7.4L22.3-7.4Q22.55-7.4 22.6-7.24 22.65-7.07 22.65-6.9L22.65-6.9Q22.65-6.79 22.62-5.97 22.58-5.15 22.55-4.07 22.51-3 22.46-2.09 22.4-1.18 22.4-0.89L22.4-0.89Q22.37 0 21.47 0ZM33.94 0.43L33.94 0.43Q29.87 0.43 27.57-1.79 25.26-4 25.26-8.15L25.26-8.15Q25.26-10.75 26.3-12.83 27.33-14.9 29.24-16.11 31.16-17.33 33.69-17.33L33.69-17.33Q35.62-17.33 37.05-16.58 38.48-15.83 39.41-14.61 40.34-13.4 40.8-11.99 41.27-10.58 41.27-9.22L41.27-9.22Q41.27-8.65 40.55-8.65L40.55-8.65 29.48-8.65Q29.41-5.93 29.96-4.39 30.51-2.86 31.62-2.25 32.73-1.64 34.3-1.64L34.3-1.64Q36.12-1.64 37.57-2.43 39.02-3.22 39.95-4.39L39.95-4.39Q40.34-4.86 40.84-4.54L40.84-4.54Q41.34-4.22 40.98-3.68L40.98-3.68Q40.27-2.61 39.36-1.68 38.44-0.75 37.14-0.16 35.84 0.43 33.94 0.43ZM29.55-10.04L29.55-10.04 36.98-10.04Q37.05-11.75 36.75-13.11 36.44-14.47 35.71-15.26 34.98-16.04 33.62-16.04L33.62-16.04Q31.91-16.04 30.94-14.42 29.98-12.79 29.55-10.04ZM44.34 0L44.34 0Q43.8 0 43.8-0.61L43.8-0.61Q43.8-1.18 44.34-1.18L44.34-1.18Q45.55-1.18 46-1.72 46.45-2.25 46.45-3.54L46.45-3.54 46.45-13.83Q46.45-14.54 46.34-14.95 46.23-15.36 45.77-15.44L45.77-15.44Q45.52-15.51 45.02-15.56 44.52-15.61 44.27-15.65L44.27-15.65Q43.77-15.72 43.77-16.22L43.77-16.22Q43.77-16.79 44.3-16.79L44.3-16.79Q44.41-16.79 45.13-16.83 45.84-16.86 46.73-16.88 47.63-16.9 48.38-16.9 49.13-16.9 49.34-16.9L49.34-16.9Q50.24-16.86 50.24-15.97L50.24-15.97 50.24-13.97Q50.74-14.79 51.58-15.56 52.41-16.33 53.59-16.83 54.77-17.33 56.2-17.33L56.2-17.33Q57.52-17.33 58.63-16.83 59.74-16.33 60.42-15.15 61.1-13.97 61.1-11.9L61.1-11.9 61.1-3.61Q61.1-2.25 61.51-1.72 61.92-1.18 62.81-1.18L62.81-1.18Q63.35-1.18 63.35-0.61L63.35-0.61Q63.35 0 62.81 0L62.81 0Q62.56 0 61.92-0.04 61.28-0.07 60.53-0.09 59.78-0.11 59.13-0.11L59.13-0.11Q58.52-0.11 57.77-0.09 57.02-0.07 56.4-0.04 55.77 0 55.49 0L55.49 0Q54.95 0 54.95-0.61L54.95-0.61Q54.95-1.18 55.49-1.18L55.49-1.18Q56.6-1.18 56.92-1.72 57.24-2.25 57.24-3.54L57.24-3.54 57.24-11.4Q57.24-13.43 56.49-14.27 55.74-15.11 54.38-15.11L54.38-15.11Q53.38-15.11 52.43-14.49 51.49-13.86 50.9-12.83 50.31-11.79 50.31-10.54L50.31-10.54 50.31-3.61Q50.31-2.25 50.7-1.72 51.09-1.18 51.88-1.18L51.88-1.18Q52.45-1.18 52.45-0.61L52.45-0.61Q52.45 0 51.88 0L51.88 0Q51.49 0 50.4-0.05 49.31-0.11 48.38-0.11L48.38-0.11Q47.77-0.11 46.91-0.09 46.06-0.07 45.34-0.04 44.63 0 44.34 0Z" transform="translate(-1.5019999742507935, 25.979999542236328)"/></g></g></g></g> <g fill-rule="" class="tp-slogan iconsvg-slogansvg" fill="#010101" transform="translate(-2.360992431640625,38.05000305175781)"> <g transform="scale(1, 1)"><g transform="scale(1)"><path d="M2.04-3.45L2.04 0L1.10 0L1.10-8.04L5.58-8.04L5.58-7.22L2.04-7.22L2.04-4.27L5.36-4.27L5.36-3.45L2.04-3.45ZM9.52-6.14L9.52-6.14Q9.70-6.14 9.90-6.12Q10.09-6.10 10.25-6.07L10.25-6.07L10.13-5.22Q9.98-5.26 9.80-5.28Q9.62-5.30 9.46-5.30L9.46-5.30Q9.10-5.30 8.78-5.16Q8.45-5.01 8.21-4.74Q7.97-4.47 7.83-4.08Q7.70-3.70 7.70-3.23L7.70-3.23L7.70 0L6.78 0L6.78-6.03L7.54-6.03L7.63-4.92L7.67-4.92Q7.86-5.25 8.12-5.53Q8.39-5.81 8.74-5.97Q9.09-6.14 9.52-6.14ZM16.58-3.03L16.58-3.03Q16.58-2.28 16.39-1.70Q16.19-1.12 15.83-0.72Q15.47-0.31 14.95-0.10Q14.44 0.11 13.79 0.11L13.79 0.11Q13.18 0.11 12.68-0.10Q12.18-0.31 11.81-0.72Q11.45-1.12 11.25-1.70Q11.04-2.28 11.04-3.03L11.04-3.03Q11.04-4.02 11.38-4.71Q11.72-5.41 12.34-5.77Q12.96-6.14 13.83-6.14L13.83-6.14Q14.65-6.14 15.27-5.77Q15.89-5.40 16.23-4.71Q16.58-4.01 16.58-3.03ZM11.99-3.03L11.99-3.03Q11.99-2.30 12.18-1.77Q12.38-1.23 12.78-0.94Q13.18-0.65 13.81-0.65L13.81-0.65Q14.44-0.65 14.84-0.94Q15.25-1.23 15.44-1.77Q15.63-2.30 15.63-3.03L15.63-3.03Q15.63-3.75 15.44-4.27Q15.25-4.80 14.85-5.08Q14.44-5.37 13.81-5.37L13.81-5.37Q12.87-5.37 12.43-4.75Q11.99-4.13 11.99-3.03ZM24.70-6.14L24.70-6.14Q25.70-6.14 26.20-5.62Q26.71-5.10 26.71-3.95L26.71-3.95L26.71 0L25.81 0L25.81-3.91Q25.81-4.64 25.49-5.00Q25.18-5.37 24.55-5.37L24.55-5.37Q23.68-5.37 23.28-4.86Q22.89-4.36 22.89-3.37L22.89-3.37L22.89 0L21.98 0L21.98-3.91Q21.98-4.39 21.84-4.72Q21.70-5.04 21.42-5.21Q21.14-5.37 20.72-5.37L20.72-5.37Q20.12-5.37 19.76-5.12Q19.39-4.87 19.23-4.39Q19.07-3.90 19.07-3.19L19.07-3.19L19.07 0L18.16 0L18.16-6.03L18.89-6.03L19.03-5.18L19.08-5.18Q19.26-5.49 19.54-5.70Q19.81-5.92 20.15-6.03Q20.49-6.14 20.88-6.14L20.88-6.14Q21.57-6.14 22.03-5.88Q22.50-5.63 22.71-5.10L22.71-5.10L22.76-5.10Q23.05-5.63 23.57-5.88Q24.09-6.14 24.70-6.14ZM35.09-7.33L35.09-7.33Q34.42-7.33 33.89-7.10Q33.36-6.88 32.99-6.44Q32.62-6.01 32.42-5.40Q32.22-4.79 32.22-4.03L32.22-4.03Q32.22-3.01 32.54-2.27Q32.85-1.52 33.48-1.12Q34.11-0.71 35.06-0.71L35.06-0.71Q35.60-0.71 36.07-0.80Q36.55-0.89 37.00-1.03L37.00-1.03L37.00-0.21Q36.56-0.05 36.08 0.03Q35.59 0.11 34.93 0.11L34.93 0.11Q33.70 0.11 32.88-0.40Q32.06-0.91 31.65-1.84Q31.24-2.77 31.24-4.03L31.24-4.03Q31.24-4.94 31.49-5.70Q31.75-6.46 32.24-7.01Q32.73-7.56 33.45-7.86Q34.17-8.16 35.10-8.16L35.10-8.16Q35.71-8.16 36.28-8.04Q36.84-7.92 37.30-7.69L37.30-7.69L36.92-6.90Q36.54-7.07 36.08-7.20Q35.62-7.33 35.09-7.33ZM38.61-8.56L39.52-8.56L39.52-6.00Q39.52-5.78 39.51-5.56Q39.50-5.34 39.47-5.15L39.47-5.15L39.53-5.15Q39.72-5.47 40.01-5.68Q40.30-5.90 40.66-6.01Q41.03-6.13 41.45-6.13L41.45-6.13Q42.17-6.13 42.66-5.90Q43.15-5.67 43.39-5.18Q43.63-4.70 43.63-3.93L43.63-3.93L43.63 0L42.73 0L42.73-3.87Q42.73-4.62 42.39-4.99Q42.04-5.37 41.34-5.37L41.34-5.37Q40.66-5.37 40.27-5.11Q39.87-4.86 39.69-4.36Q39.52-3.87 39.52-3.15L39.52-3.15L39.52 0L38.61 0L38.61-8.56ZM47.77-6.13L47.77-6.13Q48.85-6.13 49.37-5.64Q49.89-5.16 49.89-4.10L49.89-4.10L49.89 0L49.23 0L49.05-0.89L49.01-0.89Q48.76-0.56 48.48-0.34Q48.21-0.12 47.85-0.00Q47.48 0.11 46.96 0.11L46.96 0.11Q46.41 0.11 45.99-0.08Q45.56-0.28 45.31-0.67Q45.07-1.06 45.07-1.66L45.07-1.66Q45.07-2.56 45.79-3.04Q46.50-3.53 47.96-3.57L47.96-3.57L49.00-3.61L49.00-3.98Q49.00-4.76 48.67-5.08Q48.33-5.39 47.72-5.39L47.72-5.39Q47.25-5.39 46.82-5.25Q46.39-5.12 46.01-4.93L46.01-4.93L45.72-5.62Q46.13-5.83 46.66-5.98Q47.19-6.13 47.77-6.13ZM48.99-2.41L48.99-2.97L48.07-2.93Q46.95-2.89 46.48-2.56Q46.02-2.24 46.02-1.64L46.02-1.64Q46.02-1.13 46.34-0.88Q46.65-0.63 47.17-0.63L47.17-0.63Q47.97-0.63 48.48-1.08Q48.99-1.52 48.99-2.41L48.99-2.41ZM56.97-3.03L56.97-3.03Q56.97-2.28 56.78-1.70Q56.59-1.12 56.22-0.72Q55.86-0.31 55.35-0.10Q54.83 0.11 54.18 0.11L54.18 0.11Q53.58 0.11 53.08-0.10Q52.57-0.31 52.21-0.72Q51.84-1.12 51.64-1.70Q51.44-2.28 51.44-3.03L51.44-3.03Q51.44-4.02 51.78-4.71Q52.11-5.41 52.73-5.77Q53.36-6.14 54.22-6.14L54.22-6.14Q55.05-6.14 55.67-5.77Q56.29-5.40 56.63-4.71Q56.97-4.01 56.97-3.03ZM52.39-3.03L52.39-3.03Q52.39-2.30 52.58-1.77Q52.77-1.23 53.17-0.94Q53.57-0.65 54.21-0.65L54.21-0.65Q54.83-0.65 55.24-0.94Q55.64-1.23 55.83-1.77Q56.03-2.30 56.03-3.03L56.03-3.03Q56.03-3.75 55.83-4.27Q55.64-4.80 55.24-5.08Q54.84-5.37 54.20-5.37L54.20-5.37Q53.26-5.37 52.82-4.75Q52.39-4.13 52.39-3.03ZM62.45-1.65L62.45-1.65Q62.45-1.07 62.16-0.68Q61.87-0.29 61.34-0.09Q60.80 0.11 60.06 0.11L60.06 0.11Q59.43 0.11 58.96 0.01Q58.50-0.09 58.16-0.27L58.16-0.27L58.16-1.11Q58.52-0.93 59.04-0.78Q59.55-0.63 60.08-0.63L60.08-0.63Q60.86-0.63 61.21-0.89Q61.57-1.14 61.57-1.57L61.57-1.57Q61.57-1.82 61.43-2.01Q61.29-2.20 60.96-2.38Q60.63-2.56 60.04-2.77L60.04-2.77Q59.46-2.99 59.04-3.21Q58.62-3.43 58.39-3.74Q58.17-4.05 58.17-4.55L58.17-4.55Q58.17-5.32 58.79-5.73Q59.40-6.14 60.41-6.14L60.41-6.14Q60.96-6.14 61.43-6.03Q61.91-5.92 62.32-5.74L62.32-5.74L62.01-5.01Q61.64-5.17 61.21-5.28Q60.79-5.39 60.35-5.39L60.35-5.39Q59.72-5.39 59.38-5.18Q59.04-4.97 59.04-4.61L59.04-4.61Q59.04-4.33 59.20-4.15Q59.35-3.97 59.70-3.81Q60.05-3.65 60.61-3.43L60.61-3.43Q61.18-3.22 61.59-3.00Q62.01-2.78 62.23-2.46Q62.45-2.15 62.45-1.65ZM68.79-0.64L68.79-0.64Q69.02-0.64 69.26-0.68Q69.49-0.72 69.64-0.77L69.64-0.77L69.64-0.06Q69.48 0.01 69.20 0.06Q68.91 0.11 68.64 0.11L68.64 0.11Q68.17 0.11 67.78-0.06Q67.39-0.23 67.15-0.63Q66.92-1.03 66.92-1.74L66.92-1.74L66.92-5.31L66.06-5.31L66.06-5.76L66.92-6.12L67.29-7.43L67.84-7.43L67.84-6.03L69.60-6.03L69.60-5.31L67.84-5.31L67.84-1.77Q67.84-1.20 68.10-0.92Q68.36-0.64 68.79-0.64ZM76.06-3.03L76.06-3.03Q76.06-2.28 75.87-1.70Q75.67-1.12 75.31-0.72Q74.95-0.31 74.43-0.10Q73.92 0.11 73.27 0.11L73.27 0.11Q72.67 0.11 72.16-0.10Q71.66-0.31 71.29-0.72Q70.93-1.12 70.73-1.70Q70.53-2.28 70.53-3.03L70.53-3.03Q70.53-4.02 70.86-4.71Q71.20-5.41 71.82-5.77Q72.45-6.14 73.31-6.14L73.31-6.14Q74.13-6.14 74.75-5.77Q75.37-5.40 75.72-4.71Q76.06-4.01 76.06-3.03ZM71.47-3.03L71.47-3.03Q71.47-2.30 71.66-1.77Q71.86-1.23 72.26-0.94Q72.66-0.65 73.29-0.65L73.29-0.65Q73.92-0.65 74.32-0.94Q74.73-1.23 74.92-1.77Q75.11-2.30 75.11-3.03L75.11-3.03Q75.11-3.75 74.92-4.27Q74.73-4.80 74.33-5.08Q73.93-5.37 73.29-5.37L73.29-5.37Q72.35-5.37 71.91-4.75Q71.47-4.13 71.47-3.03ZM84.14-7.33L84.14-7.33Q83.47-7.33 82.94-7.10Q82.41-6.88 82.04-6.44Q81.67-6.01 81.47-5.40Q81.27-4.79 81.27-4.03L81.27-4.03Q81.27-3.01 81.59-2.27Q81.91-1.52 82.54-1.12Q83.17-0.71 84.11-0.71L84.11-0.71Q84.65-0.71 85.13-0.80Q85.60-0.89 86.05-1.03L86.05-1.03L86.05-0.21Q85.61-0.05 85.13 0.03Q84.65 0.11 83.98 0.11L83.98 0.11Q82.75 0.11 81.93-0.40Q81.11-0.91 80.70-1.84Q80.29-2.77 80.29-4.03L80.29-4.03Q80.29-4.94 80.54-5.70Q80.80-6.46 81.29-7.01Q81.79-7.56 82.50-7.86Q83.22-8.16 84.15-8.16L84.15-8.16Q84.76-8.16 85.33-8.04Q85.89-7.92 86.35-7.69L86.35-7.69L85.98-6.90Q85.59-7.07 85.13-7.20Q84.67-7.33 84.14-7.33ZM88.58-8.56L88.58 0L87.66 0L87.66-8.56L88.58-8.56ZM92.76-6.13L92.76-6.13Q93.84-6.13 94.36-5.64Q94.88-5.16 94.88-4.10L94.88-4.10L94.88 0L94.22 0L94.04-0.89L94.00-0.89Q93.74-0.56 93.47-0.34Q93.19-0.12 92.83-0.00Q92.47 0.11 91.95 0.11L91.95 0.11Q91.40 0.11 90.97-0.08Q90.55-0.28 90.30-0.67Q90.06-1.06 90.06-1.66L90.06-1.66Q90.06-2.56 90.77-3.04Q91.49-3.53 92.95-3.57L92.95-3.57L93.99-3.61L93.99-3.98Q93.99-4.76 93.66-5.08Q93.32-5.39 92.71-5.39L92.71-5.39Q92.24-5.39 91.81-5.25Q91.38-5.12 90.99-4.93L90.99-4.93L90.71-5.62Q91.12-5.83 91.65-5.98Q92.18-6.13 92.76-6.13ZM93.98-2.41L93.98-2.97L93.06-2.93Q91.93-2.89 91.47-2.56Q91.01-2.24 91.01-1.64L91.01-1.64Q91.01-1.13 91.32-0.88Q91.64-0.63 92.15-0.63L92.15-0.63Q92.96-0.63 93.47-1.08Q93.98-1.52 93.98-2.41L93.98-2.41ZM99.50-6.14L99.50-6.14Q99.68-6.14 99.88-6.12Q100.08-6.10 100.23-6.07L100.23-6.07L100.12-5.22Q99.97-5.26 99.79-5.28Q99.61-5.30 99.45-5.30L99.45-5.30Q99.08-5.30 98.76-5.16Q98.44-5.01 98.20-4.74Q97.96-4.47 97.82-4.08Q97.68-3.70 97.68-3.23L97.68-3.23L97.68 0L96.76 0L96.76-6.03L97.52-6.03L97.62-4.92L97.66-4.92Q97.85-5.25 98.11-5.53Q98.37-5.81 98.72-5.97Q99.07-6.14 99.50-6.14ZM101.37-6.03L102.28-6.03L102.28 0L101.37 0L101.37-6.03ZM101.83-8.28L101.83-8.28Q102.06-8.28 102.22-8.14Q102.38-7.99 102.38-7.68L102.38-7.68Q102.38-7.38 102.22-7.23Q102.06-7.08 101.83-7.08L101.83-7.08Q101.60-7.08 101.44-7.23Q101.28-7.38 101.28-7.68L101.28-7.68Q101.28-7.99 101.44-8.14Q101.60-8.28 101.83-8.28ZM106.16-0.64L106.16-0.64Q106.38-0.64 106.62-0.68Q106.86-0.72 107.00-0.77L107.00-0.77L107.00-0.06Q106.84 0.01 106.56 0.06Q106.28 0.11 106.01 0.11L106.01 0.11Q105.53 0.11 105.14-0.06Q104.75-0.23 104.52-0.63Q104.28-1.03 104.28-1.74L104.28-1.74L104.28-5.31L103.42-5.31L103.42-5.76L104.29-6.12L104.65-7.43L105.20-7.43L105.20-6.03L106.97-6.03L106.97-5.31L105.20-5.31L105.20-1.77Q105.20-1.20 105.46-0.92Q105.72-0.64 106.16-0.64ZM109.69 0.01L107.27-6.03L108.25-6.03L109.58-2.53Q109.70-2.22 109.80-1.94Q109.90-1.66 109.97-1.40Q110.05-1.14 110.10-0.90L110.10-0.90L110.13-0.90Q110.21-1.17 110.35-1.62Q110.50-2.07 110.66-2.54L110.66-2.54L111.92-6.03L112.91-6.03L110.28 0.89Q110.07 1.44 109.80 1.85Q109.52 2.27 109.12 2.49Q108.73 2.71 108.17 2.71L108.17 2.71Q107.91 2.71 107.71 2.68Q107.51 2.65 107.37 2.61L107.37 2.61L107.37 1.88Q107.49 1.91 107.66 1.93Q107.84 1.95 108.02 1.95L108.02 1.95Q108.36 1.95 108.61 1.82Q108.86 1.69 109.05 1.45Q109.23 1.20 109.36 0.86L109.36 0.86L109.69 0.01ZM116.80-6.03L117.71-6.03L117.71 0L116.80 0L116.80-6.03ZM117.26-8.28L117.26-8.28Q117.49-8.28 117.65-8.14Q117.81-7.99 117.81-7.68L117.81-7.68Q117.81-7.38 117.65-7.23Q117.49-7.08 117.26-7.08L117.26-7.08Q117.03-7.08 116.87-7.23Q116.71-7.38 116.71-7.68L116.71-7.68Q116.71-7.99 116.87-8.14Q117.03-8.28 117.26-8.28ZM122.49-6.14L122.49-6.14Q123.57-6.14 124.12-5.61Q124.67-5.09 124.67-3.93L124.67-3.93L124.67 0L123.76 0L123.76-3.87Q123.76-4.62 123.42-4.99Q123.08-5.37 122.37-5.37L122.37-5.37Q121.37-5.37 120.96-4.80Q120.55-4.24 120.55-3.16L120.55-3.16L120.55 0L119.64 0L119.64-6.03L120.38-6.03L120.51-5.16L120.56-5.16Q120.76-5.48 121.05-5.70Q121.35-5.91 121.72-6.03Q122.09-6.14 122.49-6.14ZM136.59-4.03L136.59-4.03Q136.59-3.04 136.32-2.24Q136.05-1.44 135.52-0.88Q134.98-0.32 134.19-0.07L134.19-0.07L136.08 1.91L134.75 1.91L133.19 0.10Q133.12 0.10 133.05 0.10Q132.97 0.11 132.90 0.11L132.90 0.11Q131.97 0.11 131.27-0.19Q130.57-0.48 130.11-1.03Q129.66-1.58 129.43-2.35Q129.20-3.11 129.20-4.04L129.20-4.04Q129.20-5.27 129.61-6.20Q130.01-7.13 130.84-7.65Q131.67-8.17 132.92-8.17L132.92-8.17Q134.11-8.17 134.93-7.66Q135.74-7.14 136.16-6.22Q136.59-5.29 136.59-4.03ZM130.18-4.03L130.18-4.03Q130.18-3.01 130.47-2.26Q130.77-1.51 131.37-1.11Q131.97-0.70 132.90-0.70L132.90-0.70Q133.84-0.70 134.43-1.11Q135.03-1.51 135.31-2.26Q135.60-3.01 135.60-4.03L135.60-4.03Q135.60-5.59 134.95-6.47Q134.30-7.34 132.92-7.34L132.92-7.34Q131.98-7.34 131.38-6.94Q130.77-6.54 130.48-5.80Q130.18-5.06 130.18-4.03ZM142.29-6.03L143.21-6.03L143.21 0L142.47 0L142.33-0.85L142.28-0.85Q142.10-0.53 141.80-0.32Q141.50-0.10 141.13 0.00Q140.76 0.11 140.34 0.11L140.34 0.11Q139.63 0.11 139.14-0.12Q138.66-0.35 138.41-0.84Q138.17-1.32 138.17-2.08L138.17-2.08L138.17-6.03L139.09-6.03L139.09-2.15Q139.09-1.39 139.43-1.02Q139.78-0.65 140.47-0.65L140.47-0.65Q141.15-0.65 141.54-0.90Q141.94-1.16 142.12-1.65Q142.29-2.14 142.29-2.85L142.29-2.85L142.29-6.03ZM150.34-3.03L150.34-3.03Q150.34-2.28 150.15-1.70Q149.96-1.12 149.59-0.72Q149.23-0.31 148.72-0.10Q148.20 0.11 147.55 0.11L147.55 0.11Q146.95 0.11 146.44-0.10Q145.94-0.31 145.58-0.72Q145.21-1.12 145.01-1.70Q144.81-2.28 144.81-3.03L144.81-3.03Q144.81-4.02 145.14-4.71Q145.48-5.41 146.10-5.77Q146.73-6.14 147.59-6.14L147.59-6.14Q148.42-6.14 149.04-5.77Q149.65-5.40 150.00-4.71Q150.34-4.01 150.34-3.03ZM145.75-3.03L145.75-3.03Q145.75-2.30 145.95-1.77Q146.14-1.23 146.54-0.94Q146.94-0.65 147.58-0.65L147.58-0.65Q148.20-0.65 148.61-0.94Q149.01-1.23 149.20-1.77Q149.40-2.30 149.40-3.03L149.40-3.03Q149.40-3.75 149.20-4.27Q149.01-4.80 148.61-5.08Q148.21-5.37 147.57-5.37L147.57-5.37Q146.63-5.37 146.19-4.75Q145.75-4.13 145.75-3.03ZM153.87-0.64L153.87-0.64Q154.09-0.64 154.33-0.68Q154.57-0.72 154.71-0.77L154.71-0.77L154.71-0.06Q154.56 0.01 154.27 0.06Q153.99 0.11 153.72 0.11L153.72 0.11Q153.24 0.11 152.85-0.06Q152.46-0.23 152.23-0.63Q151.99-1.03 151.99-1.74L151.99-1.74L151.99-5.31L151.13-5.31L151.13-5.76L152.00-6.12L152.36-7.43L152.91-7.43L152.91-6.03L154.68-6.03L154.68-5.31L152.91-5.31L152.91-1.77Q152.91-1.20 153.17-0.92Q153.43-0.64 153.87-0.64ZM155.94-6.03L156.85-6.03L156.85 0L155.94 0L155.94-6.03ZM156.40-8.28L156.40-8.28Q156.63-8.28 156.79-8.14Q156.95-7.99 156.95-7.68L156.95-7.68Q156.95-7.38 156.79-7.23Q156.63-7.08 156.40-7.08L156.40-7.08Q156.17-7.08 156.01-7.23Q155.85-7.38 155.85-7.68L155.85-7.68Q155.85-7.99 156.01-8.14Q156.17-8.28 156.40-8.28ZM161.63-6.14L161.63-6.14Q162.71-6.14 163.26-5.61Q163.81-5.09 163.81-3.93L163.81-3.93L163.81 0L162.90 0L162.90-3.87Q162.90-4.62 162.56-4.99Q162.22-5.37 161.51-5.37L161.51-5.37Q160.51-5.37 160.10-4.80Q159.69-4.24 159.69-3.16L159.69-3.16L159.69 0L158.78 0L158.78-6.03L159.52-6.03L159.65-5.16L159.70-5.16Q159.90-5.48 160.19-5.70Q160.49-5.91 160.86-6.03Q161.23-6.14 161.63-6.14ZM167.37 2.71L167.37 2.71Q166.18 2.71 165.54 2.26Q164.90 1.82 164.90 1.02L164.90 1.02Q164.90 0.46 165.26 0.06Q165.62-0.35 166.25-0.48L166.25-0.48Q166.02-0.59 165.85-0.81Q165.68-1.03 165.68-1.31L165.68-1.31Q165.68-1.64 165.87-1.89Q166.05-2.15 166.43-2.38L166.43-2.38Q165.96-2.57 165.66-3.03Q165.37-3.49 165.37-4.10L165.37-4.10Q165.37-4.75 165.64-5.21Q165.91-5.67 166.42-5.91Q166.93-6.15 167.66-6.15L167.66-6.15Q167.82-6.15 167.98-6.14Q168.14-6.12 168.29-6.10Q168.44-6.07 168.55-6.04L168.55-6.04L170.62-6.04L170.62-5.45L169.51-5.31Q169.67-5.10 169.78-4.80Q169.89-4.49 169.89-4.13L169.89-4.13Q169.89-3.22 169.28-2.69Q168.67-2.16 167.60-2.16L167.60-2.16Q167.35-2.16 167.09-2.21L167.09-2.21Q166.82-2.06 166.68-1.88Q166.54-1.69 166.54-1.46L166.54-1.46Q166.54-1.28 166.64-1.18Q166.75-1.07 166.95-1.03Q167.16-0.98 167.44-0.98L167.44-0.98L168.50-0.98Q169.49-0.98 170.01-0.57Q170.54-0.15 170.54 0.64L170.54 0.64Q170.54 1.64 169.73 2.17Q168.91 2.71 167.37 2.71ZM167.40 1.99L167.40 1.99Q168.15 1.99 168.64 1.84Q169.13 1.69 169.38 1.41Q169.62 1.12 169.62 0.73L169.62 0.73Q169.62 0.37 169.46 0.18Q169.29 0 168.97-0.06Q168.65-0.13 168.19-0.13L168.19-0.13L167.15-0.13Q166.74-0.13 166.44 0Q166.13 0.13 165.97 0.37Q165.81 0.62 165.81 0.99L165.81 0.99Q165.81 1.48 166.22 1.74Q166.63 1.99 167.40 1.99ZM167.64-2.83L167.64-2.83Q168.29-2.83 168.62-3.16Q168.95-3.49 168.95-4.12L168.95-4.12Q168.95-4.80 168.61-5.13Q168.28-5.47 167.62-5.47L167.62-5.47Q167.00-5.47 166.66-5.12Q166.32-4.77 166.32-4.10L166.32-4.10Q166.32-3.49 166.66-3.16Q167.00-2.83 167.64-2.83Z" transform="translate(-1.1000766631203451, 8.558596439076284)"/></g></g></g></g></g><defs v-gra="od"/>
  </svg>
</svg>


